<svg width="13px" height="13px" viewBox="0 0 32 32" fill="none" xmlns="http://www.w3.org/2000/svg">
    <path d="M1.33331 0.997173V6.08098C1.33331 6.20007 1.38062 6.31427 1.46483 6.39848C1.54904 6.48269 1.66325 6.53 1.78234 6.53H14.7988V18.7941C14.7987 18.853 14.8102 18.9113 14.8326 18.9658C14.8551 19.0203 14.8881 19.0698 14.9297 19.1115C14.9713 19.1532 15.0207 19.1863 15.0752 19.2089C15.1296 19.2315 15.1879 19.2431 15.2468 19.2431H21.0821C21.2011 19.2431 21.3153 19.1958 21.3996 19.1116C21.4838 19.0273 21.5311 18.9131 21.5311 18.7941V0.997173C21.5308 0.878262 21.4834 0.764314 21.3992 0.680326C21.315 0.596339 21.201 0.549169 21.0821 0.549169H1.78234C1.72342 0.549035 1.66505 0.560529 1.61058 0.582984C1.55611 0.605438 1.5066 0.638417 1.46489 0.680031C1.42318 0.721645 1.39009 0.771077 1.36752 0.825497C1.34494 0.879918 1.33331 0.938255 1.33331 0.997173Z" fill="#AFB1B3"/>
    <path d="M1.53746 12.5108H7.86192C7.97467 12.5108 8.06607 12.6022 8.06607 12.7149V30.2496C8.06607 30.3623 7.97467 30.4537 7.86192 30.4537H1.53746C1.42471 30.4537 1.33331 30.3623 1.33331 30.2496V12.7149C1.33331 12.6022 1.42471 12.5108 1.53746 12.5108Z" fill="#AFB1B3"/>
</svg>
